<svg width="55" height="55" viewBox="0 0 55 55" fill="none" xmlns="http://www.w3.org/2000/svg">
<circle cx="27.5" cy="27.1875" r="27" fill="url(#paint0_linear_0_1)"/>
<path d="M17.1523 40.125C16.5159 40.125 15.994 39.6078 16.0577 38.9746C16.3217 36.3471 17.4845 33.8771 19.3683 31.9933C21.5249 29.8366 24.45 28.625 27.5 28.625C30.55 28.625 33.4751 29.8366 35.6317 31.9933C37.5155 33.8771 38.6783 36.3471 38.9423 38.9746C39.006 39.6078 38.4841 40.125 37.8477 40.125V40.125C37.2113 40.125 36.7028 39.6071 36.6233 38.9756C36.3695 36.9607 35.4534 35.0742 34.0021 33.6229C32.2776 31.8984 29.9388 30.9296 27.5 30.9296C25.0612 30.9296 22.7224 31.8984 20.9979 33.6229C19.5466 35.0742 18.6305 36.9607 18.3767 38.9756C18.2972 39.6071 17.7887 40.125 17.1523 40.125V40.125Z" fill="#363447"/>
<path d="M31.0019 21.9844C30.4658 21.9844 30.0225 21.5465 30.1169 21.0188C30.3129 19.9229 30.8396 18.9043 31.6376 18.1063C32.6661 17.0778 34.0611 16.5 35.5156 16.5C36.9702 16.5 38.3651 17.0778 39.3937 18.1063C40.1917 18.9043 40.7183 19.9229 40.9143 21.0188C41.0087 21.5465 40.5654 21.9844 40.0294 21.9844C39.4933 21.9844 39.0716 21.5419 38.9266 21.0258C38.7637 20.4462 38.4542 19.9123 38.021 19.479C37.3565 18.8146 36.4553 18.4413 35.5156 18.4413C34.5759 18.4413 33.6747 18.8146 33.0103 19.479C32.577 19.9123 32.2676 20.4462 32.1046 21.0258C31.9596 21.5419 31.538 21.9844 31.0019 21.9844Z" fill="#363447"/>
<path d="M14.9706 21.9844C14.4346 21.9844 13.9913 21.5465 14.0857 21.0188C14.2817 19.9229 14.8083 18.9043 15.6063 18.1063C16.6349 17.0778 18.0298 16.5 19.4844 16.5C20.9389 16.5 22.3339 17.0778 23.3624 18.1063C24.1604 18.9043 24.6871 19.9229 24.8831 21.0188C24.9775 21.5465 24.5342 21.9844 23.9981 21.9844C23.462 21.9844 23.0404 21.5419 22.8954 21.0258C22.7324 20.4462 22.423 19.9123 21.9897 19.479C21.3253 18.8146 20.4241 18.4413 19.4844 18.4413C18.5447 18.4413 17.6435 18.8146 16.979 19.479C16.5458 19.9123 16.2363 20.4462 16.0734 21.0258C15.9284 21.5419 15.5067 21.9844 14.9706 21.9844Z" fill="#363447"/>
<defs>
<linearGradient id="paint0_linear_0_1" x1="27.5" y1="0.1875" x2="27.5" y2="54.1875" gradientUnits="userSpaceOnUse">
<stop stop-color="#FF997E"/>
<stop offset="1" stop-color="#C44422"/>
</linearGradient>
</defs>
</svg>
