<svg width="27" height="26" viewBox="0 0 27 26" fill="none" xmlns="http://www.w3.org/2000/svg">
<path fill-rule="evenodd" clip-rule="evenodd" d="M14.5203 0.449476C15.0084 0.937632 15.0084 1.72909 14.5203 2.21724L4.9875 11.75H25.3031C25.9934 11.75 26.5531 12.3096 26.5531 13C26.5531 13.6904 25.9934 14.25 25.3031 14.25H4.98749L14.5203 23.7828C15.0084 24.271 15.0084 25.0624 14.5203 25.5506C14.0321 26.0387 13.2407 26.0387 12.7525 25.5506L1.08584 13.8839C0.851422 13.6495 0.719726 13.3315 0.719727 13C0.719727 12.6685 0.851423 12.3505 1.08584 12.1161L12.7525 0.449474C13.2407 -0.0386806 14.0321 -0.0386796 14.5203 0.449476Z" fill="#fff"/>
</svg>
