<svg width="27" height="26" viewBox="0 0 27 26" fill="none" xmlns="http://www.w3.org/2000/svg">
<path fill-rule="evenodd" clip-rule="evenodd" d="M12.5706 0.449477C13.0588 -0.0386791 13.8502 -0.038681 14.3384 0.449473L26.0051 12.1161C26.2395 12.3505 26.3712 12.6685 26.3712 13C26.3712 13.3315 26.2395 13.6495 26.0051 13.8839L14.3384 25.5506C13.8502 26.0387 13.0588 26.0387 12.5706 25.5506C12.0824 25.0624 12.0824 24.271 12.5706 23.7828L22.1034 14.25H1.78784C1.09749 14.25 0.537842 13.6904 0.537842 13C0.537842 12.3096 1.09749 11.75 1.78784 11.75H22.1034L12.5706 2.21724C12.0824 1.72909 12.0824 0.937634 12.5706 0.449477Z" fill="#fff"/>
</svg>
