<svg width="135" height="135" viewBox="0 0 135 135" fill="none" xmlns="http://www.w3.org/2000/svg">
<path d="M27.8422 126.709C27.8422 128.349 27.2219 129.841 26.2094 130.978H16.6205C16.3422 130.663 16.0849 130.329 15.8727 129.963C15.6571 130.329 15.3969 130.662 15.1165 130.978H5.16503C4.11035 129.793 3.46545 128.234 3.46545 126.519C3.46545 124.492 4.35977 122.675 5.77744 121.467C4.83548 120.506 4.25525 119.174 4.25525 117.718C4.25525 114.749 6.64326 112.361 9.61192 112.361C10.2399 112.361 10.8394 112.466 11.4006 112.675C12.647 110.373 15.083 108.812 17.8897 108.812C21.7909 108.812 24.9782 111.819 25.2636 115.644C27.4331 116.329 29.0127 118.355 29.0127 120.753C29.0127 122.228 28.4226 123.55 27.4616 124.53C27.709 125.206 27.8422 125.948 27.8422 126.709Z" fill="#86A018"/>
<path d="M20.774 128.351C20.774 128.78 21.1165 129.127 21.5447 129.127C21.9729 129.127 22.3201 128.78 22.3201 128.351C22.3201 127.923 21.9729 127.581 21.5447 127.581C21.1165 127.581 20.774 127.923 20.774 128.351ZM20.774 122.973C20.774 123.402 21.1165 123.749 21.5447 123.749C21.9729 123.749 22.3201 123.402 22.3201 122.973C22.3201 122.545 21.9729 122.203 21.5447 122.203C21.1165 122.203 20.774 122.545 20.774 122.973ZM16.6964 125.332C16.6964 125.76 17.0389 126.107 17.4671 126.107C17.8953 126.107 18.2425 125.76 18.2425 125.332C18.2425 124.904 17.8953 124.561 17.4671 124.561C17.0389 124.561 16.6964 124.904 16.6964 125.332ZM14.6929 120.239C14.6929 120.668 15.0354 121.015 15.4637 121.015C15.8918 121.015 16.2391 120.668 16.2391 120.239C16.2391 119.811 15.8918 119.469 15.4637 119.469C15.0354 119.469 14.6929 119.811 14.6929 120.239ZM10.434 115.706C10.434 116.134 10.7765 116.481 11.2047 116.481C11.6328 116.481 11.9801 116.134 11.9801 115.706C11.9801 115.277 11.6328 114.935 11.2047 114.935C10.7765 114.935 10.434 115.277 10.434 115.706ZM19.2278 116.164C19.2278 116.592 19.5704 116.94 19.9986 116.94C20.4267 116.94 20.774 116.592 20.774 116.164C20.774 115.736 20.4267 115.394 19.9986 115.394C19.5704 115.394 19.2278 115.736 19.2278 116.164ZM6.84404 118.543C6.84404 118.971 7.18655 119.319 7.61479 119.319C8.0429 119.319 8.39018 118.971 8.39018 118.543C8.39018 118.115 8.0429 117.772 7.61479 117.772C7.18655 117.772 6.84404 118.115 6.84404 118.543ZM15.6384 113.716C15.6384 114.144 15.9809 114.492 16.4092 114.492C16.8373 114.492 17.1846 114.144 17.1846 113.716C17.1846 113.288 16.8373 112.945 16.4092 112.945C15.9809 112.945 15.6384 113.288 15.6384 113.716ZM24.5871 118.543C24.5871 118.971 24.9296 119.319 25.3578 119.319C25.786 119.319 26.1332 118.971 26.1332 118.543C26.1332 118.115 25.786 117.772 25.3578 117.772C24.9296 117.772 24.5871 118.115 24.5871 118.543ZM6.53546 126.676C6.53546 127.104 6.87798 127.452 7.30621 127.452C7.73433 127.452 8.08161 127.104 8.08161 126.676C8.08161 126.248 7.73433 125.906 7.30621 125.906C6.87798 125.906 6.53546 126.248 6.53546 126.676ZM9.31264 123.282C9.31264 123.71 9.65515 124.057 10.0834 124.057C10.5115 124.057 10.8588 123.71 10.8588 123.282C10.8588 122.854 10.5115 122.511 10.0834 122.511C9.65515 122.511 9.31264 122.854 9.31264 123.282ZM11.6931 128.351C11.6931 128.78 12.0356 129.127 12.4638 129.127C12.8919 129.127 13.2392 128.78 13.2392 128.351C13.2392 127.923 12.8919 127.581 12.4638 127.581C12.0356 127.581 11.6931 127.923 11.6931 128.351Z" fill="#7E9112"/>
<path d="M14.1815 128.921C13.5426 128.082 13.1597 127.029 13.1597 125.893C13.1597 123.124 15.3864 120.897 18.1548 120.897C18.7404 120.897 19.2995 120.995 19.8227 121.19C20.9852 119.043 23.2566 117.588 25.874 117.588C29.5118 117.588 32.4841 120.392 32.7503 123.958C34.7732 124.597 36.2462 126.487 36.2462 128.723C36.2462 128.79 36.2389 128.855 36.2364 128.921H14.1815Z" fill="#8EAE1F"/>
<path d="M20.6345 124.223C20.6345 124.623 20.9539 124.946 21.3532 124.946C21.7524 124.946 22.0763 124.623 22.0763 124.223C22.0763 123.824 21.7524 123.505 21.3532 123.505C20.9539 123.505 20.6345 123.824 20.6345 124.223ZM16.0412 122.782C16.0412 123.181 16.3606 123.505 16.7599 123.505C17.1591 123.505 17.483 123.181 17.483 122.782C17.483 122.382 17.1591 122.063 16.7599 122.063C16.3606 122.063 16.0412 122.382 16.0412 122.782ZM27.2536 125.165C27.2536 125.564 27.573 125.888 27.9723 125.888C28.3715 125.888 28.6954 125.564 28.6954 125.165C28.6954 124.765 28.3715 124.446 27.9723 124.446C27.573 124.446 27.2536 124.765 27.2536 125.165ZM23.1633 126.838C23.1633 127.336 23.561 127.739 24.0583 127.739C24.5554 127.739 24.9586 127.336 24.9586 126.838C24.9586 126.341 24.5554 125.944 24.0583 125.944C23.561 125.944 23.1633 126.341 23.1633 126.838ZM19.2258 126.839C19.2258 127.238 19.5452 127.562 19.9445 127.562C20.3438 127.562 20.6676 127.238 20.6676 126.839C20.6676 126.44 20.3438 126.12 19.9445 126.12C19.5452 126.12 19.2258 126.44 19.2258 126.839ZM14.7266 127.016C14.7266 127.415 15.046 127.739 15.4454 127.739C15.8446 127.739 16.1684 127.415 16.1684 127.016C16.1684 126.616 15.8446 126.297 15.4454 126.297C15.046 126.297 14.7266 126.616 14.7266 127.016ZM24.3394 122.65C24.3394 123.05 24.6588 123.374 25.0581 123.374C25.4573 123.374 25.7812 123.05 25.7812 122.65C25.7812 122.251 25.4573 121.932 25.0581 121.932C24.6588 121.932 24.3394 122.251 24.3394 122.65ZM21.7215 120.391C21.7215 120.791 22.0409 121.115 22.4402 121.115C22.8394 121.115 23.1633 120.791 23.1633 120.391C23.1633 119.992 22.8394 119.673 22.4402 119.673C22.0409 119.673 21.7215 119.992 21.7215 120.391ZM26.3537 119.902C26.3537 120.301 26.6731 120.625 27.0724 120.625C27.4716 120.625 27.7955 120.301 27.7955 119.902C27.7955 119.503 27.4716 119.183 27.0724 119.183C26.6731 119.183 26.3537 119.503 26.3537 119.902ZM29.0268 122.161C29.0268 122.56 29.3462 122.884 29.7455 122.884C30.1448 122.884 30.4686 122.56 30.4686 122.161C30.4686 121.762 30.1448 121.442 29.7455 121.442C29.3462 121.442 29.0268 121.762 29.0268 122.161ZM28.8157 127.383C28.8157 127.782 29.1351 128.106 29.5344 128.106C29.9336 128.106 30.2575 127.782 30.2575 127.383C30.2575 126.984 29.9336 126.664 29.5344 126.664C29.1351 126.664 28.8157 126.984 28.8157 127.383ZM32.9143 127.259C32.9143 127.658 33.2337 127.982 33.633 127.982C34.0322 127.982 34.3561 127.658 34.3561 127.259C34.3561 126.86 34.0322 126.54 33.633 126.54C33.2337 126.54 32.9143 126.86 32.9143 127.259Z" fill="#86A018"/>
<path d="M107.158 126.709C107.158 128.349 107.778 129.841 108.791 130.978H118.379C118.658 130.663 118.915 130.329 119.127 129.963C119.343 130.329 119.603 130.662 119.883 130.978H129.835C130.89 129.793 131.535 128.234 131.535 126.519C131.535 124.492 130.64 122.675 129.223 121.467C130.165 120.506 130.745 119.174 130.745 117.718C130.745 114.749 128.357 112.361 125.388 112.361C124.76 112.361 124.161 112.466 123.599 112.675C122.353 110.373 119.917 108.812 117.11 108.812C113.209 108.812 110.022 111.819 109.736 115.644C107.567 116.329 105.987 118.355 105.987 120.753C105.987 122.228 106.577 123.55 107.538 124.53C107.291 125.206 107.158 125.948 107.158 126.709Z" fill="#86A018"/>
<path d="M114.226 128.351C114.226 128.78 113.883 129.127 113.455 129.127C113.027 129.127 112.68 128.78 112.68 128.351C112.68 127.923 113.027 127.581 113.455 127.581C113.883 127.581 114.226 127.923 114.226 128.351ZM114.226 122.973C114.226 123.402 113.883 123.749 113.455 123.749C113.027 123.749 112.68 123.402 112.68 122.973C112.68 122.545 113.027 122.203 113.455 122.203C113.883 122.203 114.226 122.545 114.226 122.973ZM118.304 125.332C118.304 125.76 117.961 126.107 117.533 126.107C117.105 126.107 116.757 125.76 116.757 125.332C116.757 124.904 117.105 124.561 117.533 124.561C117.961 124.561 118.304 124.904 118.304 125.332ZM120.307 120.239C120.307 120.668 119.965 121.015 119.536 121.015C119.108 121.015 118.761 120.668 118.761 120.239C118.761 119.811 119.108 119.469 119.536 119.469C119.965 119.469 120.307 119.811 120.307 120.239ZM124.566 115.706C124.566 116.134 124.224 116.481 123.795 116.481C123.367 116.481 123.02 116.134 123.02 115.706C123.02 115.277 123.367 114.935 123.795 114.935C124.224 114.935 124.566 115.277 124.566 115.706ZM115.772 116.164C115.772 116.592 115.43 116.94 115.001 116.94C114.573 116.94 114.226 116.592 114.226 116.164C114.226 115.736 114.573 115.394 115.001 115.394C115.43 115.394 115.772 115.736 115.772 116.164ZM128.156 118.543C128.156 118.971 127.813 119.319 127.385 119.319C126.957 119.319 126.61 118.971 126.61 118.543C126.61 118.115 126.957 117.772 127.385 117.772C127.813 117.772 128.156 118.115 128.156 118.543ZM119.362 113.716C119.362 114.144 119.019 114.492 118.591 114.492C118.163 114.492 117.815 114.144 117.815 113.716C117.815 113.288 118.163 112.945 118.591 112.945C119.019 112.945 119.362 113.288 119.362 113.716ZM110.413 118.543C110.413 118.971 110.07 119.319 109.642 119.319C109.214 119.319 108.867 118.971 108.867 118.543C108.867 118.115 109.214 117.772 109.642 117.772C110.07 117.772 110.413 118.115 110.413 118.543ZM128.465 126.676C128.465 127.104 128.122 127.452 127.694 127.452C127.266 127.452 126.918 127.104 126.918 126.676C126.918 126.248 127.266 125.906 127.694 125.906C128.122 125.906 128.465 126.248 128.465 126.676ZM125.687 123.282C125.687 123.71 125.345 124.057 124.917 124.057C124.488 124.057 124.141 123.71 124.141 123.282C124.141 122.854 124.488 122.511 124.917 122.511C125.345 122.511 125.687 122.854 125.687 123.282ZM123.307 128.351C123.307 128.78 122.964 129.127 122.536 129.127C122.108 129.127 121.761 128.78 121.761 128.351C121.761 127.923 122.108 127.581 122.536 127.581C122.964 127.581 123.307 127.923 123.307 128.351Z" fill="#7E9112"/>
<path d="M120.819 128.921C121.457 128.082 121.84 127.029 121.84 125.893C121.84 123.124 119.614 120.897 116.845 120.897C116.26 120.897 115.7 120.995 115.177 121.19C114.015 119.043 111.743 117.588 109.126 117.588C105.488 117.588 102.516 120.392 102.25 123.958C100.227 124.597 98.7538 126.487 98.7538 128.723C98.7538 128.79 98.7611 128.855 98.7636 128.921H120.819Z" fill="#8EAE1F"/>
<path d="M114.366 124.223C114.366 124.623 114.046 124.946 113.647 124.946C113.248 124.946 112.924 124.623 112.924 124.223C112.924 123.824 113.248 123.505 113.647 123.505C114.046 123.505 114.366 123.824 114.366 124.223ZM118.959 122.782C118.959 123.181 118.639 123.505 118.24 123.505C117.841 123.505 117.517 123.181 117.517 122.782C117.517 122.382 117.841 122.063 118.24 122.063C118.639 122.063 118.959 122.382 118.959 122.782ZM107.746 125.165C107.746 125.564 107.427 125.888 107.028 125.888C106.628 125.888 106.305 125.564 106.305 125.165C106.305 124.765 106.628 124.446 107.028 124.446C107.427 124.446 107.746 124.765 107.746 125.165ZM111.837 126.838C111.837 127.336 111.439 127.739 110.942 127.739C110.445 127.739 110.041 127.336 110.041 126.838C110.041 126.341 110.445 125.944 110.942 125.944C111.439 125.944 111.837 126.341 111.837 126.838ZM115.774 126.839C115.774 127.238 115.455 127.562 115.055 127.562C114.656 127.562 114.332 127.238 114.332 126.839C114.332 126.44 114.656 126.12 115.055 126.12C115.455 126.12 115.774 126.44 115.774 126.839ZM120.273 127.016C120.273 127.415 119.954 127.739 119.555 127.739C119.155 127.739 118.832 127.415 118.832 127.016C118.832 126.616 119.155 126.297 119.555 126.297C119.954 126.297 120.273 126.616 120.273 127.016ZM110.661 122.65C110.661 123.05 110.341 123.374 109.942 123.374C109.543 123.374 109.219 123.05 109.219 122.65C109.219 122.251 109.543 121.932 109.942 121.932C110.341 121.932 110.661 122.251 110.661 122.65ZM113.279 120.391C113.279 120.791 112.959 121.115 112.56 121.115C112.161 121.115 111.837 120.791 111.837 120.391C111.837 119.992 112.161 119.673 112.56 119.673C112.959 119.673 113.279 119.992 113.279 120.391ZM108.646 119.902C108.646 120.301 108.327 120.625 107.928 120.625C107.528 120.625 107.205 120.301 107.205 119.902C107.205 119.503 107.528 119.183 107.928 119.183C108.327 119.183 108.646 119.503 108.646 119.902ZM105.973 122.161C105.973 122.56 105.654 122.884 105.254 122.884C104.855 122.884 104.531 122.56 104.531 122.161C104.531 121.762 104.855 121.442 105.254 121.442C105.654 121.442 105.973 121.762 105.973 122.161ZM106.184 127.383C106.184 127.782 105.865 128.106 105.466 128.106C105.066 128.106 104.743 127.782 104.743 127.383C104.743 126.984 105.066 126.664 105.466 126.664C105.865 126.664 106.184 126.984 106.184 127.383ZM102.086 127.259C102.086 127.658 101.766 127.982 101.367 127.982C100.968 127.982 100.644 127.658 100.644 127.259C100.644 126.86 100.968 126.54 101.367 126.54C101.766 126.54 102.086 126.86 102.086 127.259Z" fill="#86A018"/>
<path d="M131.535 128.34H3.535V131.5H131.535V128.34Z" fill="#7A8490"/>
<path d="M61.8141 11.7473V27.2604H31.2394V11.7473C34.1708 8.82331 35.8052 7.1814 38.7369 4.24976H54.3166C57.2482 7.1814 58.8826 8.82331 61.8141 11.7473Z" fill="#CC6633"/>
<path d="M37.3284 13.9675C37.2349 14.0443 37.1884 14.1458 37.1884 14.2724C37.1884 14.3989 37.2453 14.4995 37.3595 14.574C37.4734 14.6487 37.7367 14.737 38.1496 14.8385C38.5623 14.9402 38.8825 15.0927 39.1109 15.2958C39.339 15.4991 39.4529 15.7957 39.4529 16.1856C39.4529 16.5754 39.3068 16.8916 39.0144 17.1343C38.722 17.3769 38.3372 17.4983 37.8602 17.4983C37.1716 17.4983 36.5516 17.2433 36 16.733L36.5785 16.0238C37.0473 16.4344 37.4808 16.6397 37.879 16.6397C38.0572 16.6397 38.1972 16.6014 38.299 16.5245C38.4005 16.4478 38.4514 16.3442 38.4514 16.2135C38.4514 16.0829 38.3975 15.9792 38.2896 15.9024C38.1815 15.8257 37.9681 15.748 37.6486 15.6691C37.1425 15.5489 36.7724 15.3923 36.5382 15.1994C36.3038 15.0064 36.1866 14.7038 36.1866 14.291C36.1866 13.8784 36.3349 13.56 36.6314 13.3359C36.9278 13.1119 37.2982 13 37.742 13C38.0324 13 38.3228 13.0497 38.6132 13.1494C38.9033 13.2489 39.1564 13.3899 39.3721 13.5724L38.8805 14.2816C38.503 13.9954 38.1132 13.8524 37.7109 13.8524C37.5491 13.8524 37.4215 13.8908 37.3284 13.9675ZM42.0848 13.9395V17.4486H41.1142V13.9395H39.8823V13.0995H43.3167V13.9395H42.0848ZM47.566 16.8481C47.1263 17.2775 46.585 17.4921 45.9422 17.4921C45.2992 17.4921 44.7579 17.2775 44.3185 16.8481C43.8787 16.4188 43.6587 15.8848 43.6587 15.2461C43.6587 14.6073 43.8787 14.0732 44.3185 13.6439C44.7579 13.2147 45.2992 13 45.9422 13C46.585 13 47.1263 13.2147 47.566 13.6439C48.0058 14.0732 48.2255 14.6073 48.2255 15.2461C48.2255 15.8848 48.0058 16.4188 47.566 16.8481ZM47.2364 15.2491C47.2364 14.8614 47.1119 14.5305 46.863 14.2567C46.6141 13.983 46.3083 13.8461 45.9453 13.8461C45.5822 13.8461 45.2764 13.983 45.0276 14.2567C44.7787 14.5305 44.6544 14.8614 44.6544 15.2491C44.6544 15.637 44.7787 15.9668 45.0276 16.2385C45.2764 16.5101 45.5822 16.6459 45.9453 16.6459C46.3083 16.6459 46.6141 16.5101 46.863 16.2385C47.1119 15.9668 47.2364 15.637 47.2364 15.2491ZM52.5744 14.543C52.5744 15.2397 52.2984 15.6899 51.747 15.8932L52.848 17.4486H51.6536L50.6893 16.061H50.0172V17.4486H49.0468V13.0995H50.6954C51.3716 13.0995 51.8536 13.2137 52.142 13.4418C52.4303 13.6699 52.5744 14.037 52.5744 14.543ZM51.4048 15.0594C51.525 14.9516 51.5853 14.7805 51.5853 14.5461C51.5853 14.3118 51.523 14.151 51.3984 14.0639C51.2741 13.9768 51.0564 13.9332 50.7453 13.9332H50.0172V15.2211H50.7265C51.0584 15.2211 51.2843 15.1673 51.4048 15.0594ZM56.7058 13.0995V13.9643H54.5404V14.8602H56.488V15.6878H54.5404V16.5899H56.7741V17.4486H53.5701V13.0995H56.7058Z" fill="white"/>
<path d="M62.5638 28.0101H30.4896V11.4361L38.4264 3.5H54.627L62.5638 11.4361V28.0101ZM31.9891 26.5106H61.0643V12.0584C59.2774 10.2756 54.0057 4.9995 54.0057 4.9995H39.0477C39.0477 4.9995 33.7764 10.2756 31.9891 12.0584V26.5106Z" fill="#EA7D57"/>
<path d="M107.516 24.704H27.485V128.336H107.516V24.704Z" fill="#92E0B9"/>
<path d="M107.508 123.418H27.493V124.561H107.508V123.418Z" fill="#7CCEA2"/>
<path d="M107.508 119.651H27.493V120.794H107.508V119.651Z" fill="#7CCEA2"/>
<path d="M107.508 115.884H27.493V117.027H107.508V115.884Z" fill="#7CCEA2"/>
<path d="M107.508 112.116H27.493V113.259H107.508V112.116Z" fill="#7CCEA2"/>
<path d="M107.508 108.349H27.493V109.492H107.508V108.349Z" fill="#7CCEA2"/>
<path d="M107.508 104.581H27.493V105.724H107.508V104.581Z" fill="#7CCEA2"/>
<path d="M107.508 100.814H27.493V101.957H107.508V100.814Z" fill="#7CCEA2"/>
<path d="M107.508 97.046H27.493V98.189H107.508V97.046Z" fill="#7CCEA2"/>
<path d="M107.508 93.279H27.493V94.422H107.508V93.279Z" fill="#7CCEA2"/>
<path d="M107.508 89.511H27.493V90.654H107.508V89.511Z" fill="#7CCEA2"/>
<path d="M107.508 85.744H27.493V86.887H107.508V85.744Z" fill="#7CCEA2"/>
<path d="M107.508 81.977H27.493V83.12H107.508V81.977Z" fill="#7CCEA2"/>
<path d="M107.508 71.246H27.493V72.389H107.508V71.246Z" fill="#7CCEA2"/>
<path d="M107.508 67.478H27.493V68.621H107.508V67.478Z" fill="#7CCEA2"/>
<path d="M107.508 63.711H27.493V64.854H107.508V63.711Z" fill="#7CCEA2"/>
<path d="M107.508 59.943H27.493V61.086H107.508V59.943Z" fill="#7CCEA2"/>
<path d="M107.508 56.176H27.493V57.319H107.508V56.176Z" fill="#7CCEA2"/>
<path d="M107.508 44.874H27.493V46.017H107.508V44.874Z" fill="#7CCEA2"/>
<path d="M107.508 41.106H27.493V42.249H107.508V41.106Z" fill="#7CCEA2"/>
<path d="M107.508 37.339H27.493V38.482H107.508V37.339Z" fill="#7CCEA2"/>
<path d="M107.508 33.571H27.493V34.714H107.508V33.571Z" fill="#7CCEA2"/>
<path d="M107.508 29.804H27.493V30.947H107.508V29.804Z" fill="#7CCEA2"/>
<path opacity="0.08" d="M107.515 77.46V81.0908C80.842 77.5781 54.1688 85.3878 27.4846 81.864V78.2332C54.1688 81.757 80.8315 73.9362 107.515 77.46ZM107.515 50.5599V54.1907C80.842 50.6779 54.1688 58.4876 27.4846 54.9638V51.333C54.1688 54.8568 80.8315 47.0361 107.515 50.5599ZM107.515 24.0541V27.6849C80.842 24.1721 54.1688 31.9819 27.4846 28.4581V24.8273C54.1688 28.3511 80.8315 20.5303 107.515 24.0541Z" fill="#2C2C34"/>
<path d="M108.83 125.725H26.171V128.34H108.83V125.725Z" fill="#CCFFE3"/>
<path d="M24.821 79.4992C53.2737 84.0836 81.7263 74.9148 110.179 79.4992C110.179 78.7344 110.179 76.629 110.179 75.8642C81.7263 71.2803 53.2737 80.4491 24.821 75.8642C24.821 76.629 24.821 78.7344 24.821 79.4992Z" fill="#CCFFE3"/>
<path d="M24.821 53.0108C53.2737 57.5952 81.7263 48.4264 110.179 53.0108C110.179 52.2461 110.179 50.1406 110.179 49.3758C81.7263 44.792 53.2737 53.9608 24.821 49.3758C24.821 50.1406 24.821 52.2461 24.821 53.0108Z" fill="#CCFFE3"/>
<path d="M56.2531 51.2047C56.2531 44.9932 61.2885 39.9578 67.5 39.9578C73.7115 39.9578 78.7469 44.9932 78.7469 51.2047H56.2531ZM80.3546 51.2047C80.3546 44.9932 85.39 39.9578 91.6015 39.9578C97.813 39.9578 102.848 44.9932 102.848 51.2047H80.3546ZM32.1519 51.2047C32.1519 44.9932 37.1873 39.9578 43.3988 39.9578C49.6102 39.9578 54.6457 44.9932 54.6457 51.2047H32.1519Z" fill="#CCFFE3"/>
<path d="M24.821 26.5225C53.2737 31.1069 81.7263 21.9381 110.179 26.5225C110.179 25.7577 110.179 23.6522 110.179 22.8875C81.7263 18.3036 53.2737 27.4724 24.821 22.8875C24.821 23.6522 24.821 25.7577 24.821 26.5225Z" fill="#CCFFE3"/>
<path d="M80.874 94.864H54.126V128.338H80.874V94.864Z" fill="white"/>
<path d="M66.46 103.623H56.228V128.339H66.46V103.623Z" fill="#CCFFE3"/>
<path d="M57.224 103.623H56.961V128.34H57.224V103.623Z" fill="#92E0B9"/>
<path d="M58.925 103.623H58.662V128.34H58.925V103.623Z" fill="#92E0B9"/>
<path d="M60.625 103.623H60.362V128.34H60.625V103.623Z" fill="#92E0B9"/>
<path d="M62.325 103.623H62.062V128.34H62.325V103.623Z" fill="#92E0B9"/>
<path d="M64.026 103.623H63.763V128.34H64.026V103.623Z" fill="#92E0B9"/>
<path d="M65.726 103.623H65.463V128.34H65.726V103.623Z" fill="#92E0B9"/>
<path opacity="0.08" d="M66.46 103.623H56.228V104.192H66.46V103.623Z" fill="#2C2C34"/>
<path opacity="0.08" d="M66.46 113.702H56.228V114.271H66.46V113.702Z" fill="#2C2C34"/>
<path d="M78.784 103.623H68.552V128.339H78.784V103.623Z" fill="#CCFFE3"/>
<path d="M69.548 103.623H69.285V128.34H69.548V103.623Z" fill="#92E0B9"/>
<path d="M71.248 103.623H70.985V128.34H71.248V103.623Z" fill="#92E0B9"/>
<path d="M72.949 103.623H72.686V128.34H72.949V103.623Z" fill="#92E0B9"/>
<path d="M74.649 103.623H74.386V128.34H74.649V103.623Z" fill="#92E0B9"/>
<path d="M76.35 103.623H76.087V128.34H76.35V103.623Z" fill="#92E0B9"/>
<path d="M78.05 103.623H77.787V128.34H78.05V103.623Z" fill="#92E0B9"/>
<path opacity="0.08" d="M78.784 103.623H68.552V104.192H78.784V103.623Z" fill="#2C2C34"/>
<path opacity="0.08" d="M78.784 113.702H68.552V114.271H78.784V113.702Z" fill="#2C2C34"/>
<path d="M80.874 111.601H54.126V113.702H80.874V111.601Z" fill="white"/>
<path d="M80.874 101.522H54.126V103.623H80.874V101.522Z" fill="white"/>
<path d="M68.551 96.965H66.45V128.338H68.551V96.965Z" fill="white"/>
<path d="M67.637 95.852H67.374V128.34H67.637V95.852Z" fill="#EAEAEA"/>
<path d="M66.46 96.968H56.227V101.527H66.46V96.968Z" fill="#44433F"/>
<path d="M57.568 96.968H57.04V101.527H57.568V96.968Z" fill="white"/>
<path d="M59.522 96.968H58.994V101.527H59.522V96.968Z" fill="white"/>
<path d="M61.476 96.968H60.948V101.527H61.476V96.968Z" fill="white"/>
<path d="M63.43 96.968H62.902V101.527H63.43V96.968Z" fill="white"/>
<path d="M65.383 96.968H64.855V101.527H65.383V96.968Z" fill="white"/>
<path d="M78.784 96.968H68.551V101.527H78.784V96.968Z" fill="#44433F"/>
<path d="M69.892 96.968H69.364V101.527H69.892V96.968Z" fill="white"/>
<path d="M71.846 96.968H71.318V101.527H71.846V96.968Z" fill="white"/>
<path d="M73.8 96.968H73.272V101.527H73.8V96.968Z" fill="white"/>
<path d="M75.754 96.968H75.226V101.527H75.754V96.968Z" fill="white"/>
<path d="M77.707 96.968H77.179V101.527H77.707V96.968Z" fill="white"/>
<path d="M80.046 128.338H79.837V95.957H55.163V128.338H54.954V95.746H80.046V128.338Z" fill="#EAEAEA"/>
<path d="M101.416 98.6551V113.721H87.7185V98.6551C87.7185 94.8727 90.7847 91.8064 94.5672 91.8064C98.3496 91.8064 101.416 94.8727 101.416 98.6551Z" fill="white"/>
<path d="M89.3958 112.044V98.6543C89.3958 95.7981 91.7112 93.4827 94.5674 93.4827C97.4237 93.4827 99.7391 95.7981 99.7391 98.6543V112.044H89.3958Z" fill="#44433F"/>
<path d="M99.739 102.265H89.396V103.262H99.739V102.265Z" fill="white"/>
<path d="M94.803 93.485H94.341V102.265H94.803V93.485Z" fill="white"/>
<path d="M99.738 97.643H89.403V98.105H99.738V97.643Z" fill="white"/>
<path d="M99.738 107.421H89.403V107.883H99.738V107.421Z" fill="white"/>
<path d="M94.803 103.262H94.341V112.042H94.803V103.262Z" fill="white"/>
<path d="M102.943 113.721H86.192V116.008H102.943V113.721Z" fill="#CCFFE3"/>
<path d="M46.3451 98.6551V113.721H32.6478V98.6551C32.6478 94.8727 35.714 91.8064 39.4965 91.8064C43.2789 91.8064 46.3451 94.8727 46.3451 98.6551Z" fill="white"/>
<path d="M34.3251 112.044V98.6543C34.3251 95.7981 36.6405 93.4827 39.4967 93.4827C42.3529 93.4827 44.6684 95.7981 44.6684 98.6543V112.044H34.3251Z" fill="#44433F"/>
<path d="M44.668 102.265H34.325V103.262H44.668V102.265Z" fill="white"/>
<path d="M39.732 93.485H39.27V102.265H39.732V93.485Z" fill="white"/>
<path d="M44.667 97.643H34.332V98.105H44.667V97.643Z" fill="white"/>
<path d="M44.667 107.421H34.332V107.883H44.667V107.421Z" fill="white"/>
<path d="M39.732 103.262H39.27V112.042H39.732V103.262Z" fill="white"/>
<path d="M47.872 113.721H31.121V116.008H47.872V113.721Z" fill="#CCFFE3"/>
<path d="M99.5807 51.2047V68.7571H83.6223V51.2047C83.6223 46.7979 87.1947 43.2255 91.6015 43.2255C96.0083 43.2255 99.5807 46.7979 99.5807 51.2047Z" fill="white"/>
<path d="M85.5764 66.8041V51.2038C85.5764 47.876 88.2741 45.1784 91.6018 45.1784C94.9295 45.1784 97.6272 47.876 97.6272 51.2038V66.8041H85.5764Z" fill="#44433F"/>
<path d="M97.627 55.41H85.576V56.572H97.627V55.41Z" fill="white"/>
<path d="M91.876 45.181H91.338V55.41H91.876V45.181Z" fill="white"/>
<path d="M97.625 50.026H85.584V50.564H97.625V50.026Z" fill="white"/>
<path d="M97.625 61.418H85.584V61.956H97.625V61.418Z" fill="white"/>
<path d="M91.876 56.572H91.338V66.801H91.876V56.572Z" fill="white"/>
<path d="M101.36 68.757H81.844V71.422H101.36V68.757Z" fill="#CCFFE3"/>
<path d="M75.4792 51.2047V68.7571H59.5208V51.2047C59.5208 46.7979 63.0932 43.2255 67.5 43.2255C71.9068 43.2255 75.4792 46.7979 75.4792 51.2047Z" fill="white"/>
<path d="M61.4749 66.8041V51.2038C61.4749 47.876 64.1726 45.1784 67.5003 45.1784C70.828 45.1784 73.5257 47.876 73.5257 51.2038V66.8041H61.4749Z" fill="#44433F"/>
<path d="M73.526 55.41H61.475V56.572H73.526V55.41Z" fill="white"/>
<path d="M67.774 45.181H67.236V55.41H67.774V45.181Z" fill="white"/>
<path d="M73.524 50.026H61.483V50.564H73.524V50.026Z" fill="white"/>
<path d="M73.524 61.418H61.483V61.956H73.524V61.418Z" fill="white"/>
<path d="M67.774 56.572H67.236V66.801H67.774V56.572Z" fill="white"/>
<path d="M77.258 68.757H57.742V71.422H77.258V68.757Z" fill="#CCFFE3"/>
<path d="M51.3777 51.2047V68.7571H35.4193V51.2047C35.4193 46.7979 38.9917 43.2255 43.3985 43.2255C47.8053 43.2255 51.3777 46.7979 51.3777 51.2047Z" fill="white"/>
<path d="M37.3734 66.8041V51.2038C37.3734 47.876 40.071 45.1784 43.3988 45.1784C46.7265 45.1784 49.4241 47.876 49.4241 51.2038V66.8041H37.3734Z" fill="#44433F"/>
<path d="M49.424 55.41H37.373V56.572H49.424V55.41Z" fill="white"/>
<path d="M43.673 45.181H43.135V55.41H43.673V45.181Z" fill="white"/>
<path d="M49.422 50.026H37.381V50.564H49.422V50.026Z" fill="white"/>
<path d="M49.422 61.418H37.381V61.956H49.422V61.418Z" fill="white"/>
<path d="M43.673 56.572H43.135V66.801H43.673V56.572Z" fill="white"/>
<path d="M53.156 68.757H33.64V71.422H53.156V68.757Z" fill="#CCFFE3"/>
</svg>
